<?xml version="1.0" standalone="no"?>
<!DOCTYPE svg PUBLIC "-//W3C//DTD SVG 20010904//EN"
 "http://www.w3.org/TR/2001/REC-SVG-20010904/DTD/svg10.dtd">
<svg version="1.0" xmlns="http://www.w3.org/2000/svg"
 width="960.000000pt" height="960.000000pt" viewBox="0 0 960.000000 960.000000"
 preserveAspectRatio="xMidYMid meet">
<metadata>
Created by potrace 1.14, written by Peter Selinger 2001-2017
</metadata>
<g transform="translate(0.000000,960.000000) scale(0.100000,-0.100000)"
fill="#000000" stroke="none">
<path d="M2190 9593 c-207 -34 -348 -78 -510 -160 -445 -224 -750 -625 -857
-1123 -17 -81 -18 -240 -18 -3510 0 -3270 1 -3429 18 -3510 48 -223 147 -451
274 -630 87 -121 242 -276 363 -363 175 -124 413 -228 630 -274 81 -17 217
-18 2710 -18 l2625 0 100 22 c312 68 589 218 810 438 222 222 374 506 442 825
17 81 18 240 18 3510 0 3270 -1 3429 -18 3510 -31 145 -78 280 -144 410 -220
437 -605 736 -1098 853 l-90 21 -2615 2 c-1438 1 -2626 0 -2640 -3z m790
-2619 c508 -58 913 -229 1208 -509 103 -98 222 -244 264 -325 l23 -45 3 -1633
2 -1634 -80 73 c-402 365 -970 575 -1605 596 -93 3 -187 9 -208 14 -48 13
-105 63 -128 114 -18 38 -19 113 -19 1615 0 1053 4 1587 10 1612 13 47 52 93
99 118 30 16 58 19 166 20 72 0 191 -7 265 -16z m3749 -4 c48 -24 87 -70 101
-118 6 -25 10 -559 10 -1610 0 -1735 5 -1610 -62 -1679 -47 -48 -100 -60 -293
-67 -659 -22 -1243 -245 -1638 -625 l-47 -46 2 1635 3 1635 23 45 c77 147 292
372 470 491 338 226 787 354 1250 358 123 1 148 -2 181 -19z m-4619 -1997 c0
-802 4 -1331 10 -1368 20 -125 120 -274 231 -346 101 -64 165 -80 369 -89 596
-27 1028 -168 1382 -450 37 -30 66 -55 65 -56 -1 -1 -43 6 -93 16 -551 113
-1246 98 -1923 -40 -80 -17 -167 -30 -194 -30 -66 0 -128 36 -162 94 l-25 43
0 1692 c0 1841 -4 1727 56 1782 54 49 82 58 187 59 l97 0 0 -1307z m5294 1284
c22 -12 53 -39 70 -60 l31 -39 3 -1705 2 -1706 -25 -43 c-34 -58 -96 -94 -162
-94 -28 0 -104 11 -169 25 -666 142 -1395 159 -1948 45 -50 -10 -92 -17 -93
-16 -1 1 28 26 65 56 354 282 781 422 1377 449 162 8 200 13 257 34 131 47
232 134 296 255 64 120 62 65 62 1510 l0 1312 98 0 c82 0 103 -4 136 -23z"/>
</g>
</svg>
