<svg width="18" height="18" viewBox="0 0 18 18" fill="none" xmlns="http://www.w3.org/2000/svg">
<path d="M11.7824 9.53259C12.5177 8.95409 13.0544 8.16078 13.3178 7.26305C13.5812 6.36532 13.5583 5.40779 13.2522 4.52369C12.9461 3.6396 12.3721 2.87289 11.6099 2.33024C10.8478 1.78758 9.93546 1.49597 8.99988 1.49597C8.06429 1.49597 7.15196 1.78758 6.38982 2.33024C5.62768 2.87289 5.05363 3.6396 4.74753 4.52369C4.44144 5.40779 4.41851 6.36532 4.68195 7.26305C4.94538 8.16078 5.48208 8.95409 6.21738 9.53259C4.95743 10.0374 3.85809 10.8746 3.03654 11.955C2.215 13.0355 1.70205 14.3186 1.55238 15.6676C1.54154 15.7661 1.55021 15.8657 1.57789 15.9609C1.60558 16.056 1.65173 16.1448 1.71371 16.2221C1.83889 16.3782 2.02096 16.4782 2.21988 16.5001C2.41879 16.522 2.61825 16.4639 2.77437 16.3388C2.93049 16.2136 3.0305 16.0315 3.05238 15.8326C3.21706 14.3665 3.91614 13.0125 5.01604 12.0292C6.11594 11.0459 7.53955 10.5024 9.01488 10.5024C10.4902 10.5024 11.9138 11.0459 13.0137 12.0292C14.1136 13.0125 14.8127 14.3665 14.9774 15.8326C14.9978 16.0169 15.0857 16.1871 15.2242 16.3104C15.3627 16.4336 15.542 16.5012 15.7274 16.5001H15.8099C16.0065 16.4775 16.1862 16.3781 16.3098 16.2235C16.4334 16.069 16.491 15.8719 16.4699 15.6751C16.3195 14.3222 15.8038 13.0358 14.978 11.9537C14.1522 10.8717 13.0476 10.0347 11.7824 9.53259ZM8.99988 9.00009C8.40653 9.00009 7.82651 8.82415 7.33317 8.4945C6.83982 8.16486 6.4553 7.69632 6.22824 7.14814C6.00117 6.59997 5.94176 5.99677 6.05752 5.41482C6.17327 4.83288 6.459 4.29833 6.87855 3.87877C7.29811 3.45922 7.83266 3.17349 8.41461 3.05774C8.99655 2.94198 9.59975 3.00139 10.1479 3.22846C10.6961 3.45552 11.1646 3.84004 11.4943 4.33338C11.8239 4.82673 11.9999 5.40675 11.9999 6.00009C11.9999 6.79574 11.6838 7.5588 11.1212 8.12141C10.5586 8.68402 9.79553 9.00009 8.99988 9.00009Z" fill="#5D5A6F"/>
</svg>
